/* XPM */
static char *dummy[]={
"105 40 7 1",
"# c #993333",
"c c #996666",
"b c #cc6666",
"e c #cc9999",
"d c #cccccc",
"a c #ffcccc",
". c #ffffff",
".........................................................................................................",
"..................................#####################################..................................",
"..................................#...................................#..................................",
"..................................#...................................#..................................",
"..................................#...................................#..................................",
"..................................#...................................#..................................",
"..................................#...................................#..................................",
"..................................#...................................#..................................",
"..................................#...................................#..................................",
"..................................#...............abccbd..............#.................#################",
"###################################...............cceeee..............#.................#................",
"..................................#..............e#a..................#.................#................",
"..................................#..............e#a..................#.................#................",
"..................................#...............cb..................#.................#................",
"..................................#..............ac#e.................#.................#................",
"..................................#.............aced#e...ec...........#.................#................",
"..................................#.............ec..d#e..eb...........#.................#................",
"..................................#.............cb...e#e.ce...........#.................#................",
"..................................#.............cb....e#cc............#.................#................",
"..................................#.............e#d....b#e............###################................",
"..................................#..............c#eeebcb#e...........#..................................",
"..................................#...............ecccea.b#d..........#..................................",
"..................................#...................................#..................................",
"..................................#...................................#..................................",
"..................................#...................................#..................................",
"..................................#...................................#..................................",
"..................................#...................................#..................................",
"..................................#...................................#..................................",
"###################################...................................#..................................",
"..................................#...................................#..................................",
"..................................#...................................#..................................",
"..................................#...................................#..................................",
"..................................#...................................#..................................",
"..................................#...................................#..................................",
"..................................#...................................#..................................",
"..................................#...................................#..................................",
"..................................#...................................#..................................",
"..................................#####################################..................................",
".........................................................................................................",
"........................................................................................................."};
