/* XPM */
static char *dummy[]={
"105 40 7 1",
"# c #993333",
"e c #996666",
"b c #cc6666",
"d c #cc9999",
"c c #cccccc",
"a c #ffcccc",
". c #ffffff",
".........................................................................................................",
"..................................#####################################..................................",
"..................................#...................................#..................................",
"..................................#...................................#..................................",
"..................................#...................................#..................................",
"..................................#...................................#..................................",
"..................................#...................................#..................................",
"..................................#...................................#..................................",
"..................................#......a#bc...........db##d.........#..................................",
"..................................#.......de##da.......a##b#d.........#..................................",
"###################################.........ad##ed........a#d.........#.................#################",
"..................................#............cb##ba.....a#d.........#.................#................",
"..................................#..............d##d.....a#d.........#.................#................",
"..................................#...........ad##ed......a#d.........#.................#................",
"..................................#.........de##ba........a#d.........#.................#................",
"..................................#.......b##ed...........a#d.........#.................#................",
"..................................#......a#da.............a#d.........#.................#................",
"..................................#.......................a#d.........#.................#................",
"..................................#......ddddddddddd......a#d.........#.................#................",
"..................................#......###########c...ddd#edd.......###################................",
"..................................#.....................#######c......#..................................",
"..................................#...................................#..................................",
"..................................#...................................#..................................",
"..................................#...................................#..................................",
"..................................#...................................#..................................",
"..................................#...................................#..................................",
"..................................#...................................#..................................",
"..................................#...................................#..................................",
"###################################...................................#..................................",
"..................................#...................................#..................................",
"..................................#...................................#..................................",
"..................................#...................................#..................................",
"..................................#...................................#..................................",
"..................................#...................................#..................................",
"..................................#...................................#..................................",
"..................................#...................................#..................................",
"..................................#...................................#..................................",
"..................................#####################################..................................",
".........................................................................................................",
"........................................................................................................."};
