/* XPM */
static char *dummy[]={
"105 148 2 1",
"# c #a54b4b",
". c #ffffff",
".........................................................................................................",
"..................................#####################################..................................",
"..................................#...................................#..................................",
"..................................#...................................#..................................",
"..................................#...................................#..................................",
"..................................#...................................#..................................",
"..................................#.................###...............#..................................",
"..................................#................#..#...............#..................................",
"..................................#................####...............#..................................",
"..................................#................###................#..................................",
"................###################...............#..###..............#..................................",
"..................................#...............#...##..............#..................................",
"..................................#................###.#..............#..................................",
"..................................#...................................#..................................",
"..................................#...................................#..................................",
"..................................#...................................###................................",
"..................................#...................................#..##..............................",
"..................................#.................#.................#....##............................",
"..................................#.................#.................#......##..........................",
"..................................#...............#####...............###################................",
"..................................#.................#.................#..................................",
"..................................#.................#.................#..................................",
"..................................#...................................#..................................",
"..................................#...................................#..................................",
"..................................#...................................#..................................",
"..................................#...................................#..................................",
"..................................#...................................#..................................",
"..................................#...................................#..................................",
"................###################...................................#..................................",
"..................................#...................................#..................................",
"..................................#...................................#..................................",
"..................................#...................................#..................................",
"..................................#...................................#..................................",
"..................................#...................................#..................................",
"..................................#...................................#..................................",
"..................................#...................................#..................................",
"..................................#...................................#..................................",
"..................................#####################################..................................",
"..................................#...................................#..................................",
"..................................#...................................#..................................",
"..................................#...................................#..................................",
"..................................#...................................#..................................",
"..................................#.................###...............#..................................",
"..................................#................#..#...............#..................................",
"..................................#................####...............#..................................",
"..................................#................###................#..................................",
"................###################...............#..###..............#..................................",
"..................................#...............#...##..............#..................................",
"..................................#................###.#..............#..................................",
"..................................#...................................#..................................",
"..................................#...................................#..................................",
"..................................#...................................##.................................",
"..................................#...................................#.##...............................",
"..................................#.................#.................#...##.............................",
"..................................#.................#.................#.....##...........................",
"..................................#...............#####...............###################................",
"..................................#.................#.................#..................................",
"..................................#.................#.................#..................................",
"..................................#.................#.................#..................................",
"..................................#...................................#..................................",
"..................................#...................................#..................................",
"..................................#...................................#..................................",
"..................................#...................................#..................................",
"..................................#...................................#..................................",
"................###################...................................#..................................",
"..................................#...................................#..................................",
"..................................#...................................#..................................",
"..................................#...................................#..................................",
"..................................#...................................#..................................",
"..................................#...................................#..................................",
"..................................#...................................#..................................",
"..................................#...................................#..................................",
"..................................#...................................#..................................",
"..................................#####################################..................................",
"..................................#...................................#..................................",
"..................................#...................................#..................................",
"..................................#...................................#..................................",
"..................................#...................................#..................................",
"..................................#...................................#..................................",
"..................................#.................###...............#..................................",
"..................................#................#..#...............#..................................",
"..................................#................####...............#..................................",
"................###################................###................#..................................",
"..................................#...............#..###..............#..................................",
"..................................#...............#...##..............#..................................",
"..................................#................###.#..............#..................................",
"..................................#...................................#..................................",
"..................................#...................................##.................................",
"..................................#...................................#.##...............................",
"..................................#.................#.................#...##.............................",
"..................................#.................#.................#.....##...........................",
"..................................#...............#####...............###################................",
"..................................#.................#.................#..................................",
"..................................#.................#.................#..................................",
"..................................#.................#.................#..................................",
"..................................#...................................#..................................",
"..................................#...................................#..................................",
"..................................#...................................#..................................",
"..................................#...................................#..................................",
"..................................#...................................#..................................",
"..................................#...................................#..................................",
"................###################...................................#..................................",
"..................................#...................................#..................................",
"..................................#...................................#..................................",
"..................................#...................................#..................................",
"..................................#...................................#..................................",
"..................................#...................................#..................................",
"..................................#...................................#..................................",
"..................................#...................................#..................................",
"..................................#...................................#..................................",
"..................................#####################################..................................",
"..................................#...................................#..................................",
"..................................#...................................#..................................",
"..................................#...................................#..................................",
"..................................#...................................#..................................",
"..................................#.................###...............#..................................",
"..................................#................#..#...............#..................................",
"..................................#................####...............#..................................",
"..................................#................###................#..................................",
"................###################...............#..###..............#..................................",
"..................................#...............#...##..............#..................................",
"..................................#................###.#..............#..................................",
"..................................#...................................#..................................",
"..................................#...................................#..................................",
"..................................#...................................###................................",
"..................................#.................#.................#..##..............................",
"..................................#.................#.................#....##............................",
"..................................#.................#.................#......##..........................",
"..................................#...............#####...............###################................",
"..................................#.................#.................#..................................",
"..................................#.................#.................#..................................",
"..................................#...................................#..................................",
"..................................#...................................#..................................",
"..................................#...................................#..................................",
"..................................#...................................#..................................",
"..................................#...................................#..................................",
"..................................#...................................#..................................",
"................###################...................................#..................................",
"..................................#...................................#..................................",
"..................................#...................................#..................................",
"..................................#...................................#..................................",
"..................................#...................................#..................................",
"..................................#...................................#..................................",
"..................................#...................................#..................................",
"..................................#...................................#..................................",
"..................................#...................................#..................................",
"..................................#####################################..................................",
"........................................................................................................."};
