/* XPM */
static char *dummy[]={
"117 44 4 1",
"b c #317016",
"a c #4ba54b",
"# c #a54b4b",
". c #ffffff",
".....................................................................................................................",
"......................................#########################################......................................",
".....................................##########################################......................................",
".....................................##......................................##......................................",
".....................................##......................................##......................................",
".....................................##......................................##......................................",
".....................................##......................................##......................................",
".....................................##..............#.........#.............##......................................",
".................aaa.................##...............#.......##.............##......................................",
"...........a...aa...aa...............##................##.....##.............##......................................",
"...........aaa.a.....a...............##..................#...#.#.............##......................................",
"...........aaaaa......a..............##...................#....#.............##......................................",
"..............a...####b################.................##.....#.............##......................................",
"..............a.......a..............##...............##.......#.............##......................................",
"...............a.....a...............##..............#.......######..........##......................................",
"...............aa...aa...............##......................................##......................................",
".................aaa.................##..............#######.................##......................................",
".....................................##......................................##......................................",
".....................................##......................................####................aaa.................",
".....................................##......................................##..##............aa...aaaa.a.aaa.......",
".....................................##...................#..................##....##..........a....aa.a.a.a.a.......",
".....................................##...................#..................##......##.......a.....a.aa.a.a.a.......",
".....................................##................#######...............#################b####...a..............",
".....................................##...................#..................##...............a.......a..............",
".....................................##...................#..................##................a.....a...............",
".....................................##......................................##................aa...aa...............",
".....................................##......................................##..................aaa.................",
".....................................##......................................##......................................",
"...........a...a.aaa.................##......................................##......................................",
"...........aaa.aa...aa...............##......................................##......................................",
"...........aaa.a.....a...............##......................................##......................................",
"..............a.......a..............##......................................##......................................",
"..............a...####b################......................................##......................................",
"..............a.......a..............##......................................##......................................",
"...............a.....a...............##......................................##......................................",
"...............aa...aa...............##......................................##......................................",
".................aaa.................##......................................##......................................",
".....................................##......................................##......................................",
".....................................##......................................##......................................",
".....................................##......................................##......................................",
".....................................##......................................##......................................",
".....................................##########################################......................................",
".....................................##########################################......................................",
"....................................................................................................................."};
